<svg width="333" height="96" viewBox="0 0 333 96" fill="none" xmlns="http://www.w3.org/2000/svg">
<path d="M53.6418 11.0099C54.7813 12.3505 55.3511 13.5571 55.3511 14.6296C55.3511 15.7021 54.9489 16.5735 54.1445 17.2438C53.3736 17.8806 52.7536 18.199 52.2844 18.199C51.8152 18.199 49.2177 17.1432 44.492 15.0318C39.7663 12.8868 35.6606 11.8143 32.175 11.8143C25.4719 11.8143 20.2099 14.4117 16.3891 19.6066C12.5684 24.8016 10.658 32.0409 10.658 41.3248C10.658 44.5423 11.1775 47.8268 12.2164 51.1784C15.501 61.7358 22.0198 67.0145 31.7728 67.0145C31.8064 67.0145 31.8399 67.0145 31.8734 67.0145C35.5601 67.0145 39.783 65.8079 44.5423 63.3948C49.335 60.9482 51.9492 59.7248 52.3849 59.7248C54.7645 59.7248 55.9543 60.7303 55.9543 62.7413C55.9543 65.523 53.3569 68.3216 48.162 71.1369C42.967 73.9522 37.6213 75.3599 32.1247 75.3599H30.516C26.1925 75.3264 22.1203 74.5052 18.2995 72.8965C14.4787 71.2877 11.2277 68.9416 8.54648 65.8582C2.84883 59.2891 0 50.8097 0 40.4198V38.6603C0 34.1022 0.737339 29.5608 2.21203 25.0362C5.32898 15.5177 11.3283 8.99895 20.2099 5.47981C23.6285 4.13918 27.885 3.46887 32.9794 3.46887C38.0737 3.46887 43.2519 4.75922 48.5139 7.33993C50.7929 8.44594 52.5022 9.66926 53.6418 11.0099Z" fill="#50AEE2"/>
<path d="M102.709 50.1729V47.7598C102.642 47.0224 102.608 46.4527 102.608 46.0505C102.608 41.9281 101.452 38.1911 99.1392 34.8395C96.8266 31.4879 93.9275 29.8122 90.4419 29.8122L89.9392 29.8624C86.5876 29.8624 83.8226 31.7058 81.6441 35.3925C79.4991 39.0792 78.4266 43.5368 78.4266 48.7653L78.4769 49.3183V49.9215C78.4769 54.5132 79.4489 58.6524 81.3928 62.3391C82.4318 64.3165 83.7724 65.8247 85.4147 66.8637C87.0904 67.9027 88.5483 68.4222 89.7884 68.4222H91.6988C92.8384 68.4222 94.179 67.9362 95.7207 66.9642C97.296 65.9923 98.6366 64.5176 99.7426 62.5402C101.72 59.021 102.709 54.8986 102.709 50.1729ZM112.562 47.056V48.8658L112.512 49.7707C112.512 57.2447 110.451 63.5792 106.328 68.7741C102.206 73.969 96.9272 76.5665 90.4922 76.5665H89.6878C86.6044 76.5665 83.7555 75.9129 81.1413 74.6058C75.6783 71.8575 71.9748 67.1653 70.0309 60.5292C69.0589 57.1777 68.573 53.7758 68.573 50.3237V49.4188C68.573 41.8778 70.3996 35.5601 74.0528 30.4657C76.1307 27.5499 78.5774 25.3713 81.3927 23.9302C84.2415 22.4555 87.0736 21.7181 89.8889 21.7181H92.2518C94.8325 21.7181 97.3964 22.3549 99.9436 23.6285C105.206 26.2427 108.859 30.7003 110.903 37.0013C112.009 40.4199 112.562 43.7714 112.562 47.056Z" fill="#50AEE2"/>
<path d="M127.343 6.33445V3.82078C127.343 2.27906 127.711 1.25684 128.449 0.754102C129.219 0.251368 130.728 0 132.973 0H134.532C136.241 0 137.246 1.55848 137.548 4.67543C137.649 5.74793 137.699 13.9928 137.699 29.41L137.749 32.0745V40.9729L137.799 41.8275C137.799 41.8275 137.799 42.414 137.799 43.5871L137.85 44.492C137.85 44.492 137.85 45.0785 137.85 46.2516L137.9 48.8658C137.9 48.8658 137.934 50.0053 138.001 52.2844C138.001 54.1277 138.302 57.5296 138.906 62.4899C139.542 67.4502 139.861 70.0141 139.861 70.1817V71.7905C139.861 73.5668 139.559 74.6561 138.956 75.0582C138.386 75.4604 136.895 75.6615 134.482 75.6615L133.677 75.6112C131.934 75.6112 130.761 75.2761 130.158 74.6058C129.588 73.902 129.119 72.3937 128.75 70.0812C128.382 67.7351 128.197 60.7638 128.197 49.1674V23.3269C128.197 18.6682 128.047 14.8139 127.745 11.764C127.477 8.68055 127.343 6.8707 127.343 6.33445Z" fill="#50AEE2"/>
<path d="M155.094 6.33445V3.82078C155.094 2.27906 155.462 1.25684 156.2 0.754102C156.97 0.251368 158.479 0 160.724 0H162.283C163.992 0 164.997 1.55848 165.299 4.67543C165.4 5.74793 165.45 13.9928 165.45 29.41L165.5 32.0745V40.9729L165.55 41.8275C165.55 41.8275 165.55 42.414 165.55 43.5871L165.601 44.492C165.601 44.492 165.601 45.0785 165.601 46.2516L165.651 48.8658C165.651 48.8658 165.685 50.0053 165.752 52.2844C165.752 54.1277 166.053 57.5296 166.657 62.4899C167.293 67.4502 167.612 70.0141 167.612 70.1817V71.7905C167.612 73.5668 167.31 74.6561 166.707 75.0582C166.137 75.4604 164.646 75.6615 162.232 75.6615L161.428 75.6112C159.685 75.6112 158.512 75.2761 157.909 74.6058C157.339 73.902 156.87 72.3937 156.501 70.0812C156.133 67.7351 155.948 60.7638 155.948 49.1674V23.3269C155.948 18.6682 155.797 14.8139 155.496 11.764C155.228 8.68055 155.094 6.8707 155.094 6.33445Z" fill="#50AEE2"/>
<path d="M210.294 51.3795C210.294 50.374 209.741 49.8713 208.635 49.8713C204.043 49.8713 199.435 51.346 194.81 54.2953C191.559 56.3733 189.933 58.7697 189.933 61.4844V63.0429C189.933 64.5846 190.553 65.8582 191.793 66.8637C193.067 67.8356 194.592 68.3216 196.368 68.3216H196.72C200.742 68.3216 204.16 66.914 206.976 64.0986C208.953 62.1212 209.942 59.8422 209.942 57.2615C210.076 56.4571 210.143 55.9208 210.143 55.6527L210.294 53.7423V51.3795ZM219.041 67.3161C219.41 69.059 219.594 70.5504 219.594 71.7905C219.594 73.0306 219.326 73.9355 218.79 74.5052C218.287 75.0415 217.03 75.3096 215.019 75.3096C213.042 75.3096 211.534 74.6896 210.495 73.4495C209.489 72.2094 208.802 71.5894 208.434 71.5894C208.099 71.5894 207.294 72.0083 206.021 72.8462C204.78 73.6506 203.943 74.1701 203.507 74.4047C200.96 75.7453 198.295 76.4156 195.513 76.4156C186.598 76.4156 182.141 71.757 182.141 62.4396C182.141 53.7256 188.827 47.6257 202.2 44.1401C205.015 43.4027 206.758 42.8497 207.428 42.4811C209.54 41.3751 210.595 39.7998 210.595 37.7554C210.595 35.7109 209.758 33.9681 208.082 32.5269C206.439 31.0858 204.211 30.3652 201.395 30.3652C198.58 30.3652 195.631 31.2198 192.547 32.9291C189.497 34.6384 187.134 35.4931 185.459 35.4931C183.213 35.4931 182.09 34.4373 182.09 32.3258V31.4209C182.09 29.6446 184.068 27.818 188.023 25.9411C191.977 24.0642 196.1 23.1258 200.39 23.1258H202.954C207.881 23.1258 211.936 24.4497 215.12 27.0974C218.304 29.7116 219.896 33.3313 219.896 37.9565V39.1127L218.488 62.5402C218.488 63.9478 218.673 65.5398 219.041 67.3161Z" fill="#50AEE2"/>
<path d="M269.616 45.5477C269.616 41.4588 268.527 37.9397 266.349 34.9903C264.204 32.0409 261.64 30.5662 258.657 30.5662H258.204C256.763 30.5662 255.255 31.0355 253.68 31.9739C252.105 32.9123 250.898 34.1021 250.06 35.5433C248.451 38.2916 247.647 42.833 247.647 49.1674V49.7204L247.697 50.2734C247.697 50.6421 247.697 51.0108 247.697 51.3794L247.848 54.5969C247.882 54.9656 247.898 55.3175 247.898 55.6527C247.898 59.507 248.703 62.5401 250.312 64.7522C251.954 66.9642 254.099 68.0702 256.747 68.0702H258.556C259.796 68.0702 261.204 67.601 262.779 66.6626C264.355 65.7241 265.662 64.2662 266.701 62.2888C268.712 58.5015 269.717 54.2618 269.717 49.5696V47.257C269.65 46.4526 269.616 45.8829 269.616 45.5477ZM247.044 26.2427C247.379 26.2427 248.016 26.0081 248.954 25.5389C252.339 23.7961 255.607 22.9079 258.757 22.8744C265.058 22.8744 270.069 25.3881 273.789 30.4154C277.543 35.4093 279.42 42.0956 279.42 50.4745V51.7314C279.42 58.9707 277.56 64.7857 273.839 69.1762C270.119 73.5333 265.762 75.7118 260.768 75.7118C258.556 75.7118 255.942 75.0918 252.926 73.8517C249.909 72.5781 248.267 71.9413 247.999 71.9413C247.731 71.9413 247.077 72.1759 246.038 72.6451C244.999 73.0808 244.195 73.2987 243.625 73.2987C241.011 73.2987 239.402 72.3937 238.799 70.5839C238.43 69.4444 238.246 65.4057 238.246 58.468C238.246 51.5303 237.961 43.8384 237.391 35.3925C236.821 26.9466 236.537 21.9695 236.537 20.4613L236.335 15.9367L236.185 7.84265V6.63609C236.185 4.02187 236.57 2.31257 237.341 1.5082C238.112 0.703823 239.385 0.301636 241.162 0.301636H242.217C243.793 0.301636 244.832 0.837886 245.334 1.91039C245.837 2.98289 246.088 4.35703 246.088 6.03281L245.737 19.9585C245.737 24.148 246.172 26.2427 247.044 26.2427Z" fill="#50AEE2"/>
<path d="M304.305 81.4429C305.847 79.1974 306.618 76.3486 306.618 72.8965C306.618 69.4443 304.037 61.3001 298.876 48.4636C293.748 35.5936 291.184 28.2201 291.184 26.3433C291.184 24.4329 292.441 23.4777 294.954 23.4777C297.501 23.4777 299.797 25.4718 301.842 29.4602C302.747 31.27 304.624 36.6326 307.472 45.5477C310.355 54.4293 311.913 58.8702 312.148 58.8702C312.818 58.8702 314.678 54.2283 317.728 44.9444C320.778 35.6271 322.638 30.2143 323.309 28.7061C324.984 25.0194 327.096 23.176 329.643 23.176C331.486 23.176 332.408 23.6955 332.408 24.7345V25.5892C332.408 26.293 329.408 35.4595 323.409 53.0887C317.443 70.7179 314.008 80.471 313.103 82.3479C308.847 91.1625 303.652 95.5698 297.518 95.5698C294.401 95.5698 292.843 94.6481 292.843 92.8047C292.843 91.3301 293.429 90.0565 294.602 88.984C294.803 88.7829 296.412 87.8612 299.429 86.2189C301.138 85.2805 302.763 83.6885 304.305 81.4429Z" fill="#50AEE2"/>
</svg>
